<svg xmlns="http://www.w3.org/2000/svg" xmlns:xlink="http://www.w3.org/1999/xlink" width="175" zoomAndPan="magnify" viewBox="0 0 131.25 30.000001" height="40" preserveAspectRatio="xMidYMid meet" version="1.0"><defs><g/><clipPath id="2321101e52"><path d="M 4.65625 4.804688 L 24.980469 4.804688 L 24.980469 20.769531 L 4.65625 20.769531 Z M 4.65625 4.804688 " clip-rule="nonzero"/></clipPath></defs><g fill="#65c3c8" fill-opacity="1"><g transform="translate(25.237781, 19.506404)"><g><path d="M 1.476562 0 L 4.550781 0 L 4.550781 -15.464844 L 1.476562 -15.464844 Z M 1.476562 0 "/></g></g></g><g fill="#65c3c8" fill-opacity="1"><g transform="translate(30.841181, 19.506404)"><g><path d="M 6.867188 0.335938 C 10.386719 0.335938 13.019531 -2.253906 13.019531 -5.6875 C 13.019531 -9.121094 10.386719 -11.691406 6.867188 -11.691406 C 3.351562 -11.691406 0.714844 -9.121094 0.714844 -5.6875 C 0.714844 -2.253906 3.351562 0.335938 6.867188 0.335938 Z M 6.867188 -2.570312 C 5.097656 -2.570312 3.835938 -3.835938 3.835938 -5.6875 C 3.835938 -7.519531 5.097656 -8.804688 6.867188 -8.804688 C 8.636719 -8.804688 9.902344 -7.519531 9.902344 -5.6875 C 9.902344 -3.835938 8.636719 -2.570312 6.867188 -2.570312 Z M 6.867188 -2.570312 "/></g></g></g><g fill="#65c3c8" fill-opacity="1"><g transform="translate(44.175712, 19.506404)"><g><path d="M 10.660156 -11.375 L 10.15625 -10.238281 C 9.164062 -11.144531 7.859375 -11.691406 6.382812 -11.691406 C 3.203125 -11.691406 0.714844 -9.164062 0.714844 -5.984375 C 0.714844 -2.78125 3.203125 -0.273438 6.382812 -0.273438 C 7.605469 -0.273438 8.722656 -0.652344 9.628906 -1.285156 L 9.628906 -0.863281 C 9.628906 0.800781 8.34375 1.8125 6.785156 1.8125 C 5.644531 1.8125 4.445312 1.285156 4.085938 0.253906 L 1.03125 0.253906 C 1.558594 2.84375 3.75 4.425781 6.824219 4.425781 C 10.429688 4.425781 12.640625 2.253906 12.640625 -1.304688 L 12.640625 -11.355469 Z M 6.742188 -3.035156 C 5.054688 -3.035156 3.835938 -4.277344 3.835938 -5.960938 C 3.835938 -7.667969 5.054688 -8.910156 6.742188 -8.910156 C 8.425781 -8.910156 9.648438 -7.667969 9.648438 -5.960938 C 9.648438 -4.277344 8.425781 -3.035156 6.742188 -3.035156 Z M 6.742188 -3.035156 "/></g></g></g><g fill="#eeaf3a" fill-opacity="1"><g transform="translate(57.895485, 19.506404)"><g><path d="M 5.5 0.335938 C 8.386719 0.335938 10.28125 -1.179688 10.28125 -3.496094 C 10.28125 -6.277344 7.898438 -6.65625 6.046875 -6.996094 C 4.867188 -7.203125 3.898438 -7.394531 3.898438 -8.152344 C 3.898438 -8.804688 4.464844 -9.226562 5.414062 -9.226562 C 6.488281 -9.226562 7.121094 -8.785156 7.140625 -7.878906 L 10.070312 -7.878906 C 10.050781 -10.15625 8.238281 -11.691406 5.5 -11.691406 C 2.761719 -11.691406 0.925781 -10.195312 0.925781 -8.046875 C 0.925781 -5.371094 3.246094 -4.886719 5.054688 -4.570312 C 6.257812 -4.382812 7.246094 -4.148438 7.246094 -3.371094 C 7.246094 -2.613281 6.46875 -2.210938 5.625 -2.210938 C 4.53125 -2.210938 3.75 -2.71875 3.730469 -3.730469 L 0.738281 -3.730469 C 0.738281 -1.304688 2.65625 0.335938 5.5 0.335938 Z M 5.5 0.335938 "/></g></g></g><g fill="#eeaf3a" fill-opacity="1"><g transform="translate(68.533602, 19.506404)"><g><path d="M 7.035156 -2.738281 C 5.898438 -2.738281 5.265625 -3.371094 5.265625 -4.464844 L 5.265625 -8.890625 L 8.363281 -8.890625 L 8.363281 -11.375 L 5.226562 -11.375 L 5.226562 -14.324219 L 4.636719 -14.324219 L 0.148438 -9.566406 L 0.148438 -8.890625 L 2.191406 -8.890625 L 2.191406 -4.042969 C 2.191406 -1.539062 3.730469 0 6.234375 0 L 8.425781 0 L 8.425781 -2.738281 Z M 7.035156 -2.738281 "/></g></g></g><g fill="#eeaf3a" fill-opacity="1"><g transform="translate(77.170474, 19.506404)"><g><path d="M 7.289062 -11.441406 C 5.816406 -11.441406 4.804688 -10.976562 3.980469 -9.964844 L 3.433594 -11.375 L 1.476562 -11.375 L 1.476562 0 L 4.550781 0 L 4.550781 -5.898438 C 4.550781 -7.753906 5.226562 -8.53125 6.953125 -8.53125 L 8.300781 -8.53125 L 8.300781 -11.441406 Z M 7.289062 -11.441406 "/></g></g></g><g fill="#eeaf3a" fill-opacity="1"><g transform="translate(85.322835, 19.506404)"><g><path d="M 10.746094 -11.375 L 10.429688 -10.300781 C 9.4375 -11.164062 8.152344 -11.691406 6.679688 -11.691406 C 3.265625 -11.691406 0.714844 -9.121094 0.714844 -5.6875 C 0.714844 -2.253906 3.265625 0.335938 6.679688 0.335938 C 8.132812 0.335938 9.394531 -0.167969 10.363281 -1.03125 L 10.640625 0 L 13.039062 0 L 13.039062 -11.375 Z M 6.929688 -2.570312 C 5.140625 -2.570312 3.835938 -3.917969 3.835938 -5.6875 C 3.835938 -7.480469 5.140625 -8.804688 6.929688 -8.804688 C 8.722656 -8.804688 10.027344 -7.480469 10.027344 -5.6875 C 10.027344 -3.898438 8.722656 -2.570312 6.929688 -2.570312 Z M 6.929688 -2.570312 "/></g></g></g><g fill="#eeaf3a" fill-opacity="1"><g transform="translate(99.43679, 19.506404)"><g><path d="M 7.667969 -11.691406 C 6.257812 -11.691406 4.992188 -11.1875 4.023438 -10.324219 L 3.496094 -11.375 L 1.476562 -11.375 L 1.476562 4.109375 L 4.550781 4.109375 L 4.550781 -0.609375 C 5.414062 0 6.488281 0.359375 7.667969 0.359375 C 11.101562 0.359375 13.628906 -2.234375 13.628906 -5.6875 C 13.628906 -9.121094 11.101562 -11.691406 7.667969 -11.691406 Z M 7.414062 -2.570312 C 5.625 -2.570312 4.320312 -3.898438 4.320312 -5.6875 C 4.320312 -7.457031 5.625 -8.804688 7.414062 -8.804688 C 9.207031 -8.804688 10.511719 -7.457031 10.511719 -5.6875 C 10.511719 -3.898438 9.207031 -2.570312 7.414062 -2.570312 Z M 7.414062 -2.570312 "/></g></g></g><g fill="#eeaf3a" fill-opacity="1"><g transform="translate(113.382223, 19.506404)"><g><path d="M 5.5 0.335938 C 8.386719 0.335938 10.28125 -1.179688 10.28125 -3.496094 C 10.28125 -6.277344 7.898438 -6.65625 6.046875 -6.996094 C 4.867188 -7.203125 3.898438 -7.394531 3.898438 -8.152344 C 3.898438 -8.804688 4.464844 -9.226562 5.414062 -9.226562 C 6.488281 -9.226562 7.121094 -8.785156 7.140625 -7.878906 L 10.070312 -7.878906 C 10.050781 -10.15625 8.238281 -11.691406 5.5 -11.691406 C 2.761719 -11.691406 0.925781 -10.195312 0.925781 -8.046875 C 0.925781 -5.371094 3.246094 -4.886719 5.054688 -4.570312 C 6.257812 -4.382812 7.246094 -4.148438 7.246094 -3.371094 C 7.246094 -2.613281 6.46875 -2.210938 5.625 -2.210938 C 4.53125 -2.210938 3.75 -2.71875 3.730469 -3.730469 L 0.738281 -3.730469 C 0.738281 -1.304688 2.65625 0.335938 5.5 0.335938 Z M 5.5 0.335938 "/></g></g></g><g clip-path="url(#2321101e52)"><path fill="#65c3c8" d="M 19.488281 17.488281 C 20.785156 17.488281 21.917969 17.121094 21.917969 15.75 C 21.917969 14.433594 20.710938 14.054688 19.382812 14.054688 L 15.421875 14.054688 L 15.421875 17.488281 Z M 8.933594 6.402344 L 9.496094 6.402344 C 9.992188 6.402344 9.992188 7.15625 9.496094 7.15625 L 8.933594 7.15625 C 8.4375 7.167969 8.4375 6.402344 8.933594 6.402344 Z M 10.445312 6.402344 L 12.191406 6.402344 C 12.691406 6.402344 12.679688 5.6875 12.257812 5.644531 C 11.890625 5.613281 11.1875 5.796875 11.1875 5.269531 C 11.1875 4.804688 11.730469 4.890625 12.074219 4.890625 L 19.304688 4.890625 C 21.097656 4.890625 22.457031 5.355469 23.375 6.273438 C 24.109375 7.003906 24.445312 7.890625 24.445312 8.96875 C 24.445312 10.46875 23.699219 11.648438 22.40625 12.339844 C 23.300781 12.683594 24.011719 13.148438 24.53125 13.730469 C 25.070312 14.335938 25.308594 15.15625 25.308594 16.214844 C 25.308594 19.503906 22.328125 20.488281 19.480469 20.488281 L 14.015625 20.488281 C 14.277344 20.25 14.105469 19.828125 13.757812 19.828125 L 11.589844 19.828125 C 11.09375 19.828125 11.09375 19.074219 11.589844 19.074219 L 12.441406 19.074219 C 12.9375 19.074219 12.9375 18.316406 12.441406 18.316406 L 11.589844 18.316406 C 11.09375 18.316406 11.09375 17.5625 11.589844 17.5625 C 12.570312 17.5625 13.542969 17.5625 14.523438 17.5625 C 15.019531 17.5625 15.019531 16.808594 14.523438 16.808594 L 10.910156 16.808594 C 10.410156 16.808594 10.410156 16.050781 10.910156 16.050781 L 12.667969 16.050781 C 13.164062 16.050781 13.164062 15.296875 12.667969 15.296875 L 11.878906 15.296875 C 11.382812 15.296875 11.382812 14.539062 11.878906 14.539062 L 13.164062 14.539062 C 13.660156 14.539062 13.660156 13.785156 13.164062 13.785156 C 12.570312 13.785156 11.964844 13.785156 11.371094 13.785156 C 10.875 13.785156 10.875 13.027344 11.371094 13.027344 L 12.644531 13.027344 C 13.144531 13.027344 13.144531 12.273438 12.644531 12.273438 L 11.039062 12.273438 C 10.542969 12.273438 10.542969 11.519531 11.039062 11.519531 C 12.117188 11.519531 12.074219 11.605469 12.074219 11.117188 C 12.074219 11.019531 12.148438 10.933594 12.257812 10.933594 L 14.167969 10.933594 C 14.664062 10.933594 14.664062 10.179688 14.167969 10.179688 L 10.777344 10.179688 C 10.28125 10.179688 10.28125 9.421875 10.777344 9.421875 L 12.074219 9.421875 C 12.570312 9.371094 12.460938 8.691406 12.097656 8.679688 L 10.714844 8.679688 C 10.21875 8.679688 10.21875 7.921875 10.714844 7.921875 L 14.285156 7.914062 C 14.785156 7.914062 14.785156 7.15625 14.285156 7.15625 L 10.445312 7.167969 C 9.9375 7.167969 9.9375 6.402344 10.445312 6.402344 Z M 10.152344 19.074219 C 10.445312 19.074219 10.960938 19 10.960938 19.453125 C 10.960938 19.90625 10.445312 19.828125 10.152344 19.828125 C 9.65625 19.839844 9.65625 19.074219 10.152344 19.074219 Z M 5.683594 14.527344 L 6.613281 14.527344 C 7.109375 14.527344 7.109375 15.285156 6.613281 15.285156 L 5.683594 15.285156 C 5.1875 15.285156 5.1875 14.527344 5.683594 14.527344 Z M 7.832031 14.527344 L 10.929688 14.527344 C 11.425781 14.527344 11.425781 15.285156 10.929688 15.285156 L 7.832031 15.285156 C 7.335938 15.285156 7.335938 14.527344 7.832031 14.527344 Z M 9.753906 13.019531 L 10.359375 13.019531 C 10.855469 13.019531 10.855469 13.773438 10.359375 13.773438 L 9.753906 13.773438 C 9.257812 13.773438 9.257812 13.019531 9.753906 13.019531 Z M 10.066406 4.902344 L 10.628906 4.902344 C 11.125 4.902344 11.125 5.65625 10.628906 5.65625 L 10.066406 5.65625 C 9.570312 5.65625 9.570312 4.902344 10.066406 4.902344 Z M 7.691406 7.902344 L 9.582031 7.902344 C 10.078125 7.902344 10.078125 8.65625 9.582031 8.65625 L 7.691406 8.65625 C 7.195312 8.65625 7.195312 7.902344 7.691406 7.902344 Z M 9.019531 17.5625 L 10.628906 17.5625 C 11.125 17.5625 11.125 18.316406 10.628906 18.316406 L 9.019531 18.316406 C 8.523438 18.316406 8.523438 17.5625 9.019531 17.5625 Z M 8.902344 11.507812 L 9.980469 11.507812 C 10.476562 11.507812 10.476562 12.261719 9.980469 12.261719 L 8.902344 12.261719 C 8.402344 12.261719 8.402344 11.507812 8.902344 11.507812 Z M 5.175781 9.414062 L 9.417969 9.414062 C 9.914062 9.414062 9.914062 10.167969 9.417969 10.167969 L 5.175781 10.167969 C 4.667969 10.167969 4.667969 9.414062 5.175781 9.414062 Z M 9.417969 16.050781 C 9.742188 16.050781 10.28125 15.964844 10.28125 16.429688 C 10.28125 16.894531 9.742188 16.808594 9.417969 16.808594 C 8.921875 16.808594 8.921875 16.050781 9.417969 16.050781 Z M 18.582031 11.203125 C 19.804688 11.203125 21.054688 10.890625 21.054688 9.554688 C 21.054688 8.289062 20.03125 7.902344 18.808594 7.902344 L 15.59375 7.902344 C 15.496094 7.902344 15.410156 7.976562 15.410156 8.085938 L 15.410156 11.019531 C 15.410156 11.117188 15.484375 11.203125 15.59375 11.203125 Z M 12.140625 8.667969 C 12.128906 8.667969 12.128906 8.667969 12.117188 8.667969 Z M 12.140625 8.667969 " fill-opacity="1" fill-rule="evenodd"/></g></svg>