<svg xmlns="http://www.w3.org/2000/svg" xmlns:xlink="http://www.w3.org/1999/xlink" width="500" zoomAndPan="magnify" viewBox="0 0 375 374.999991" height="500" preserveAspectRatio="xMidYMid meet" version="1.0"><path fill="#65c3c8" d="M 269.203125 275.371094 C 292.714844 275.371094 313.285156 268.710938 313.285156 243.828125 C 313.285156 219.925781 291.34375 213.066406 267.242188 213.066406 L 195.335938 213.066406 L 195.335938 275.371094 Z M 77.585938 74.152344 L 87.773438 74.152344 C 96.785156 74.152344 96.785156 87.867188 87.773438 87.867188 L 77.585938 87.867188 C 68.570312 88.066406 68.570312 74.152344 77.585938 74.152344 Z M 105.015625 74.152344 L 136.753906 74.152344 C 145.765625 74.152344 145.570312 61.222656 137.929688 60.4375 C 131.269531 59.851562 118.535156 63.179688 118.535156 53.582031 C 118.535156 45.15625 128.328125 46.722656 134.597656 46.722656 L 265.871094 46.722656 C 298.394531 46.722656 323.082031 55.148438 339.734375 71.800781 C 353.058594 85.125 359.132812 101.191406 359.132812 120.785156 C 359.132812 148.019531 345.613281 169.375 322.101562 181.914062 C 338.363281 188.183594 351.296875 196.609375 360.699219 207.1875 C 370.496094 218.160156 374.808594 233.050781 374.808594 252.253906 C 374.808594 312.011719 320.730469 329.839844 269.007812 329.839844 L 169.867188 329.839844 C 174.570312 325.53125 171.433594 317.886719 165.164062 317.886719 L 125.78125 317.886719 C 116.769531 317.886719 116.769531 304.171875 125.78125 304.171875 L 141.261719 304.171875 C 150.273438 304.171875 150.273438 290.457031 141.261719 290.457031 L 125.78125 290.457031 C 116.769531 290.457031 116.769531 276.742188 125.78125 276.742188 C 143.613281 276.742188 161.246094 276.742188 179.074219 276.742188 C 188.085938 276.742188 188.085938 263.027344 179.074219 263.027344 L 113.4375 263.027344 C 104.425781 263.027344 104.425781 249.3125 113.4375 249.3125 L 145.375 249.3125 C 154.386719 249.3125 154.386719 235.597656 145.375 235.597656 L 131.074219 235.597656 C 122.058594 235.597656 122.058594 221.882812 131.074219 221.882812 L 154.386719 221.882812 C 163.402344 221.882812 163.402344 208.167969 154.386719 208.167969 C 143.613281 208.167969 132.640625 208.167969 121.863281 208.167969 C 112.851562 208.167969 112.851562 194.453125 121.863281 194.453125 L 144.984375 194.453125 C 153.996094 194.453125 153.996094 180.738281 144.984375 180.738281 L 115.789062 180.738281 C 106.777344 180.738281 106.777344 167.023438 115.789062 167.023438 C 135.382812 167.023438 134.597656 168.589844 134.597656 159.773438 C 134.597656 158.011719 135.972656 156.445312 137.929688 156.445312 L 172.609375 156.445312 C 181.621094 156.445312 181.621094 142.726562 172.609375 142.726562 L 111.089844 142.726562 C 102.074219 142.726562 102.074219 129.011719 111.089844 129.011719 L 134.597656 129.011719 C 143.613281 128.035156 141.652344 115.691406 134.992188 115.496094 L 109.914062 115.496094 C 100.898438 115.496094 100.898438 101.78125 109.914062 101.78125 L 174.765625 101.582031 C 183.777344 101.582031 183.777344 87.867188 174.765625 87.867188 L 105.015625 88.066406 C 95.804688 88.066406 95.804688 74.152344 105.015625 74.152344 Z M 99.722656 304.171875 C 105.015625 304.171875 114.417969 302.800781 114.417969 311.03125 C 114.417969 319.257812 105.015625 317.886719 99.722656 317.886719 C 90.710938 318.085938 90.710938 304.171875 99.722656 304.171875 Z M 18.609375 221.6875 L 35.460938 221.6875 C 44.472656 221.6875 44.472656 235.402344 35.460938 235.402344 L 18.609375 235.402344 C 9.597656 235.402344 9.597656 221.6875 18.609375 221.6875 Z M 57.601562 221.6875 L 113.832031 221.6875 C 122.84375 221.6875 122.84375 235.402344 113.832031 235.402344 L 57.601562 235.402344 C 48.585938 235.402344 48.585938 221.6875 57.601562 221.6875 Z M 92.476562 194.257812 L 103.445312 194.257812 C 112.460938 194.257812 112.460938 207.972656 103.445312 207.972656 L 92.476562 207.972656 C 83.460938 207.972656 83.460938 194.257812 92.476562 194.257812 Z M 98.15625 46.917969 L 108.34375 46.917969 C 117.359375 46.917969 117.359375 60.632812 108.34375 60.632812 L 98.15625 60.632812 C 89.144531 60.632812 89.144531 46.917969 98.15625 46.917969 Z M 55.050781 101.386719 L 89.339844 101.386719 C 98.351562 101.386719 98.351562 115.101562 89.339844 115.101562 L 55.050781 115.101562 C 46.039062 115.101562 46.039062 101.386719 55.050781 101.386719 Z M 79.152344 276.742188 L 108.34375 276.742188 C 117.359375 276.742188 117.359375 290.457031 108.34375 290.457031 L 79.152344 290.457031 C 70.140625 290.457031 70.140625 276.742188 79.152344 276.742188 Z M 76.996094 166.828125 L 96.589844 166.828125 C 105.601562 166.828125 105.601562 180.542969 96.589844 180.542969 L 76.996094 180.542969 C 67.984375 180.542969 67.984375 166.828125 76.996094 166.828125 Z M 9.402344 128.816406 L 86.402344 128.816406 C 95.414062 128.816406 95.414062 142.53125 86.402344 142.53125 L 9.402344 142.53125 C 0.191406 142.53125 0.191406 128.816406 9.402344 128.816406 Z M 86.402344 249.3125 C 92.277344 249.3125 102.074219 247.746094 102.074219 256.171875 C 102.074219 264.597656 92.277344 263.027344 86.402344 263.027344 C 77.386719 263.027344 77.386719 249.3125 86.402344 249.3125 Z M 252.742188 161.339844 C 274.882812 161.339844 297.613281 155.660156 297.613281 131.363281 C 297.613281 108.441406 279 101.386719 256.859375 101.386719 L 198.472656 101.386719 C 196.707031 101.386719 195.140625 102.757812 195.140625 104.71875 L 195.140625 158.011719 C 195.140625 159.773438 196.511719 161.339844 198.472656 161.339844 Z M 135.773438 115.296875 C 135.578125 115.296875 135.578125 115.296875 135.382812 115.296875 Z M 135.773438 115.296875 " fill-opacity="1" fill-rule="evenodd"/></svg>